<?xml version="1.0" ?><svg id="Layer_1" style="enable-background:new 0 0 1000 1000;" version="1.1" viewBox="0 0 1000 1000" xml:space="preserve" xmlns="http://www.w3.org/2000/svg" xmlns:xlink="http://www.w3.org/1999/xlink"><style type="text/css">
	.st0{fill:url(#tweaked_values_1_);}
	.st1{fill:#FFFFFF;}
</style><title/><g><linearGradient gradientTransform="matrix(0 -1 1 0 0 3806)" gradientUnits="userSpaceOnUse" id="tweaked_values_1_" x1="2806" x2="3806" y1="500" y2="500"><stop offset="0.1137" style="stop-color:#006DFF"/><stop offset="0.9493" style="stop-color:#00C6FF"/></linearGradient><path class="st0" d="M1000,500L1000,500c0,276.1-223.9,500-500,500h0C223.9,1000,0,776.1,0,500v0   C0,223.9,223.9,0,500,0h0C776.1,0,1000,223.9,1000,500z" id="tweaked_values"/><path class="st1" d="M499.5,162.1c-185,0-335,140.3-335,313.3c0,98.4,48.5,186.2,124.5,243.7v119.9l114.3-63.4   c30.5,8.5,62.8,13.1,96.2,13.1c185,0,335-140.3,335-313.3S684.5,162.1,499.5,162.1z M534.8,582.2l-86.6-90l-166.9,92.3l182.9-194.1   l86.6,90L717.7,388L534.8,582.2z" id="Bubble_Shape"/></g></svg>